<svg width="82" height="16" viewBox="0 0 82 16" fill="none" xmlns="http://www.w3.org/2000/svg">
<g clip-path="url(#clip0_4111_203)">
<path fill-rule="evenodd" clip-rule="evenodd" d="M11.1223 4.67412C10.4645 4.2346 9.69114 4 8.90002 4V0C10.4823 0 12.029 0.469192 13.3446 1.34824C14.6602 2.22729 15.6855 3.47672 16.2911 4.93852C16.8965 6.40032 17.055 8.00888 16.7463 9.56072C16.4376 11.1126 15.6757 12.538 14.5569 13.6568C13.4381 14.7757 12.0126 15.5376 10.4607 15.8463C8.90891 16.155 7.30034 15.9965 5.83854 15.391C4.37674 14.7855 3.12732 13.7602 2.24827 12.4446C1.36922 11.129 0.900024 9.58224 0.900024 8H4.90002C4.90002 8.79112 5.13462 9.56448 5.57414 10.2223C6.01366 10.8801 6.63838 11.3928 7.3693 11.6955C8.10018 11.9983 8.90446 12.0775 9.68038 11.9231C10.4563 11.7688 11.169 11.3878 11.7285 10.8284C12.2879 10.269 12.6688 9.55628 12.8231 8.78036C12.9775 8.00444 12.8983 7.20016 12.5955 6.46928C12.2928 5.73836 11.7801 5.11364 11.1223 4.67412Z" fill="#AAD9D1"/>
<path fill-rule="evenodd" clip-rule="evenodd" d="M4.90002 2.11397e-06C4.90002 0.52529 4.79656 1.04543 4.59554 1.53074C4.39452 2.01604 4.09989 2.45699 3.72845 2.82843C3.35702 3.19987 2.91606 3.4945 2.43076 3.69552C1.94545 3.89654 1.42531 4 0.900025 4L0.900024 8C1.9506 8 2.99089 7.79308 3.96149 7.39104C4.9321 6.989 5.81402 6.39972 6.55686 5.65684C7.29974 4.914 7.88902 4.03208 8.29106 3.06147C8.6931 2.09086 8.90002 1.05057 8.90002 0L4.90002 2.11397e-06Z" fill="#AAD9D1"/>
<path d="M51.1476 5.78101H49.2068V11.9459H51.1476V5.78101Z" fill="#AAD9D1"/>
<path d="M49.4229 4.62669C49.6257 4.82965 49.8793 4.93113 50.1837 4.93113C50.4881 4.93113 50.7377 4.82965 50.9321 4.62669C51.1269 4.41529 51.2241 4.16157 51.2241 3.86559C51.2241 3.56116 51.1269 3.30744 50.9321 3.10449C50.7377 2.90152 50.4881 2.80005 50.1837 2.80005C49.8793 2.80005 49.6257 2.90152 49.4229 3.10449C49.2281 3.30744 49.1309 3.56116 49.1309 3.86559C49.1309 4.16157 49.2281 4.41529 49.4229 4.62669Z" fill="#AAD9D1"/>
<path d="M21.3625 11.9459V2.99023H23.3541V10.1954H27.3246V11.9459H21.3625Z" fill="#AAD9D1"/>
<path fill-rule="evenodd" clip-rule="evenodd" d="M30.9109 12.0854C30.2767 12.0854 29.7017 11.9458 29.1858 11.6668C28.6784 11.3792 28.2767 10.9902 27.9807 10.4997C27.6847 10.0092 27.5367 9.45956 27.5367 8.85068C27.5367 8.2418 27.6847 7.69636 27.9807 7.21432C28.2767 6.73228 28.6784 6.35172 29.1858 6.07268C29.6932 5.78512 30.2683 5.64136 30.9109 5.64136C31.5537 5.64136 32.1287 5.78092 32.6361 6.05996C33.1435 6.33904 33.5452 6.72384 33.8412 7.21432C34.1372 7.69636 34.2852 8.2418 34.2852 8.85068C34.2852 9.45956 34.1372 10.0092 33.8412 10.4997C33.5452 10.9902 33.1435 11.3792 32.6361 11.6668C32.1287 11.9458 31.5537 12.0854 30.9109 12.0854ZM30.9109 10.3222C31.19 10.3222 31.4353 10.263 31.6467 10.1446C31.8581 10.0177 32.0188 9.84436 32.1287 9.62448C32.2471 9.39616 32.3063 9.1382 32.3063 8.85068C32.3063 8.56316 32.2471 8.31368 32.1287 8.10228C32.0103 7.8824 31.8454 7.71328 31.634 7.59488C31.431 7.468 31.19 7.4046 30.9109 7.4046C30.6403 7.4046 30.3993 7.468 30.1879 7.59488C29.9765 7.71328 29.8116 7.8824 29.6932 8.10228C29.5748 8.32216 29.5156 8.57584 29.5156 8.86336C29.5156 9.14244 29.5748 9.39616 29.6932 9.62448C29.8116 9.84436 29.9765 10.0177 30.1879 10.1446C30.3993 10.263 30.6403 10.3222 30.9109 10.3222Z" fill="#AAD9D1"/>
<path fill-rule="evenodd" clip-rule="evenodd" d="M35.8224 14.356C36.3382 14.5928 36.9344 14.7112 37.611 14.7112C38.2706 14.7112 38.8583 14.5801 39.3742 14.3179C39.89 14.0558 40.2959 13.6922 40.5919 13.2271C40.8879 12.7619 41.0361 12.2123 41.0361 11.578V5.78093H39.1331V6.19513C38.9916 6.07601 38.8309 5.97601 38.6511 5.89509C38.3213 5.73441 37.945 5.65405 37.5222 5.65405C36.9556 5.65405 36.4524 5.78937 36.0126 6.05997C35.5728 6.32213 35.2262 6.68577 34.9724 7.15089C34.7187 7.60757 34.5919 8.12341 34.5919 8.69849C34.5919 9.26509 34.7187 9.78093 34.9724 10.2461C35.2262 10.7112 35.5728 11.0791 36.0126 11.3497C36.4524 11.6203 36.9556 11.7556 37.5222 11.7556C37.9365 11.7556 38.3128 11.6753 38.6511 11.5146C38.815 11.4367 38.963 11.345 39.0951 11.2394V11.6287C39.0951 12.06 38.9556 12.3941 38.6765 12.6309C38.4059 12.8677 38.0296 12.986 37.5475 12.986C37.1585 12.986 36.8245 12.9184 36.5454 12.7831C36.2748 12.6478 36.0295 12.449 35.8096 12.1869L34.6173 13.3793C34.9132 13.8021 35.315 14.1277 35.8224 14.356ZM38.5877 9.85281C38.3932 9.97121 38.1606 10.0304 37.89 10.0304C37.6194 10.0304 37.3826 9.97121 37.1796 9.85281C36.9851 9.73441 36.8329 9.57373 36.723 9.37077C36.613 9.15937 36.5581 8.93525 36.5581 8.69849C36.5581 8.44477 36.613 8.21645 36.723 8.01349C36.8329 7.81053 36.9894 7.64985 37.1923 7.53145C37.3953 7.41305 37.6278 7.35385 37.89 7.35385C38.1606 7.35385 38.3932 7.41305 38.5877 7.53145C38.7906 7.64985 38.9428 7.81053 39.0444 8.01349C39.1543 8.21645 39.2092 8.44477 39.2092 8.69849C39.2092 8.95217 39.1543 9.18049 39.0444 9.38345C38.9428 9.57797 38.7906 9.73441 38.5877 9.85281Z" fill="#AAD9D1"/>
<path fill-rule="evenodd" clip-rule="evenodd" d="M45.1204 12.0854C44.486 12.0854 43.9108 11.9458 43.3952 11.6668C42.8876 11.3792 42.486 10.9902 42.19 10.4997C41.894 10.0092 41.746 9.45956 41.746 8.85068C41.746 8.2418 41.894 7.69636 42.19 7.21432C42.486 6.73228 42.8876 6.35172 43.3952 6.07268C43.9024 5.78512 44.4776 5.64136 45.1204 5.64136C45.7628 5.64136 46.338 5.78092 46.8452 6.05996C47.3528 6.33904 47.7544 6.72384 48.0504 7.21432C48.3464 7.69636 48.4944 8.2418 48.4944 8.85068C48.4944 9.45956 48.3464 10.0092 48.0504 10.4997C47.7544 10.9902 47.3528 11.3792 46.8452 11.6668C46.338 11.9458 45.7628 12.0854 45.1204 12.0854ZM45.1204 10.3222C45.3992 10.3222 45.6444 10.263 45.856 10.1446C46.0672 10.0177 46.228 9.84436 46.338 9.62448C46.4564 9.39616 46.5156 9.1382 46.5156 8.85068C46.5156 8.56316 46.4564 8.31368 46.338 8.10228C46.2196 7.8824 46.0548 7.71328 45.8432 7.59488C45.6404 7.468 45.3992 7.4046 45.1204 7.4046C44.8496 7.4046 44.6084 7.468 44.3972 7.59488C44.1856 7.71328 44.0208 7.8824 43.9024 8.10228C43.784 8.32216 43.7248 8.57584 43.7248 8.86336C43.7248 9.14244 43.784 9.39616 43.9024 9.62448C44.0208 9.84436 44.1856 10.0177 44.3972 10.1446C44.6084 10.263 44.8496 10.3222 45.1204 10.3222Z" fill="#AAD9D1"/>
<path fill-rule="evenodd" clip-rule="evenodd" d="M55.8125 12.0727C55.3985 12.0727 55.0177 11.9924 54.6709 11.8317C54.4885 11.7471 54.3237 11.6462 54.1765 11.5288V14.5463H52.2609V5.78093H54.2017V6.20641C54.3425 6.09125 54.4989 5.99169 54.6709 5.90777C55.0177 5.73861 55.3985 5.65405 55.8125 5.65405C56.3961 5.65405 56.9121 5.79361 57.3601 6.07269C57.8169 6.35173 58.1721 6.73229 58.4257 7.21433C58.6881 7.69637 58.8189 8.24605 58.8189 8.86337C58.8189 9.48073 58.6881 10.0304 58.4257 10.5125C58.1721 10.9945 57.8169 11.375 57.3601 11.6541C56.9121 11.9332 56.3961 12.0727 55.8125 12.0727ZM55.4577 10.3222C55.7365 10.3222 55.9777 10.2587 56.1805 10.1319C56.3921 10.0051 56.5569 9.83165 56.6753 9.61181C56.7937 9.39193 56.8529 9.14245 56.8529 8.86337C56.8529 8.57585 56.7937 8.32217 56.6753 8.10229C56.5569 7.88241 56.3921 7.71329 56.1805 7.59489C55.9777 7.46801 55.7409 7.40461 55.4701 7.40461C55.1997 7.40461 54.9585 7.46801 54.7473 7.59489C54.5441 7.71329 54.3837 7.88241 54.2653 8.10229C54.1469 8.32217 54.0877 8.57585 54.0877 8.86337C54.0877 9.14245 54.1425 9.39193 54.2525 9.61181C54.3709 9.83165 54.5357 10.0051 54.7473 10.1319C54.9585 10.2587 55.1953 10.3222 55.4577 10.3222Z" fill="#AAD9D1"/>
<path d="M60.7185 11.9587C61.0737 12.0518 61.4329 12.0982 61.7965 12.0982C62.5661 12.0982 63.1749 11.9207 63.6233 11.5655C64.0797 11.2103 64.3081 10.7325 64.3081 10.1321C64.3081 9.74308 64.2365 9.43016 64.0925 9.1934C63.9489 8.94816 63.7629 8.75364 63.5345 8.60988C63.3061 8.46612 63.0649 8.35192 62.8113 8.26736C62.5577 8.1828 62.3165 8.11092 62.0885 8.05172C61.8601 7.99252 61.6741 7.92488 61.5301 7.84876C61.3865 7.77264 61.3145 7.67116 61.3145 7.54432C61.3145 7.42592 61.3697 7.33712 61.4793 7.27792C61.5893 7.21028 61.7541 7.17648 61.9741 7.17648C62.2025 7.17648 62.4349 7.22296 62.6717 7.316C62.9169 7.409 63.1369 7.56972 63.3313 7.79804L64.4349 6.68176C64.1561 6.32656 63.7925 6.06016 63.3441 5.8826C62.9045 5.69656 62.4225 5.60352 61.8981 5.60352C61.3993 5.60352 60.9637 5.68808 60.5917 5.8572C60.2193 6.02636 59.9317 6.25892 59.7289 6.55488C59.5261 6.8424 59.4245 7.18492 59.4245 7.5824C59.4245 7.95448 59.4965 8.26316 59.6401 8.5084C59.7837 8.74516 59.9701 8.93124 60.1981 9.06652C60.4265 9.20184 60.6677 9.30756 60.9213 9.38364C61.1749 9.45976 61.4161 9.53164 61.6445 9.59932C61.8725 9.65852 62.0589 9.7304 62.2025 9.81496C62.3549 9.89108 62.4309 10.0052 62.4309 10.1574C62.4309 10.2758 62.3673 10.3688 62.2405 10.4365C62.1221 10.5042 61.9489 10.538 61.7205 10.538C61.3905 10.538 61.0861 10.4788 60.8073 10.3604C60.5281 10.2336 60.2869 10.0602 60.0841 9.84032L58.9805 10.9566C59.1921 11.1849 59.4457 11.3879 59.7417 11.5655C60.0461 11.7346 60.3717 11.8657 60.7185 11.9587Z" fill="#AAD9D1"/>
<path d="M67.8472 12.0854C67.2808 12.0854 66.7776 11.9713 66.338 11.743C65.9064 11.5062 65.5684 11.1848 65.3232 10.7789C65.0776 10.3645 64.9552 9.89097 64.9552 9.35817V5.78101H66.896V9.33281C66.896 9.54421 66.9296 9.72605 66.9976 9.87825C67.0736 10.0305 67.1836 10.1489 67.3272 10.2334C67.4712 10.318 67.6444 10.3603 67.8472 10.3603C68.1348 10.3603 68.3632 10.2715 68.5324 10.0939C68.7016 9.90785 68.786 9.65417 68.786 9.33281V5.78101H70.7268V9.34549C70.7268 9.88673 70.6044 10.3645 70.3588 10.7789C70.1136 11.1848 69.7756 11.5062 69.344 11.743C68.9128 11.9713 68.414 12.0854 67.8472 12.0854Z" fill="#AAD9D1"/>
<path d="M73.6324 5.78093H71.6917V11.9459H73.6324V8.34329C73.6324 8.13189 73.6748 7.95429 73.7592 7.81053C73.8524 7.66677 73.9752 7.55681 74.1272 7.48073C74.2796 7.39613 74.4528 7.35385 74.6472 7.35385C74.9264 7.35385 75.1588 7.44265 75.3448 7.62025C75.5396 7.78937 75.6368 8.03041 75.6368 8.34329V11.9459H77.5776V8.34329C77.5776 8.13189 77.62 7.95429 77.7044 7.81053C77.7976 7.66677 77.92 7.55681 78.0724 7.48073C78.2244 7.39613 78.398 7.35385 78.5925 7.35385C78.8717 7.35385 79.1041 7.44265 79.2901 7.62025C79.4845 7.78937 79.5816 8.03041 79.5816 8.34329V11.9459H81.5229V8.12765C81.5229 7.61181 81.4128 7.17205 81.1928 6.80841C80.9812 6.43629 80.6897 6.15301 80.3177 5.95853C79.9541 5.75553 79.5353 5.65405 79.0617 5.65405C78.5797 5.65405 78.144 5.75977 77.7552 5.97121C77.5024 6.10589 77.2817 6.27973 77.0925 6.49269C76.916 6.26993 76.7016 6.08765 76.4484 5.94581C76.1104 5.75133 75.7256 5.65405 75.2944 5.65405C74.8376 5.65405 74.4277 5.75133 74.0641 5.94581C73.9057 6.02673 73.762 6.12365 73.6324 6.23657V5.78093Z" fill="#AAD9D1"/>
</g>
<defs>
<clipPath id="clip0_4111_203">
<rect width="80.8" height="16" fill="white" transform="translate(0.900024)"/>
</clipPath>
</defs>
</svg>
