<svg width="88" height="16" viewBox="0 0 88 16" fill="none" xmlns="http://www.w3.org/2000/svg">
<g clip-path="url(#clip0_4111_217)">
<path d="M49.6421 11.8096H51.5073V4.77418H49.6421V11.8096ZM49.6421 3.67705H51.5073V2.00391H49.6421V3.67705Z" fill="#AAD9D1"/>
<path d="M52.7092 14.1135H54.5744V11.014H54.6016C54.9992 11.6175 55.644 12.0152 56.6312 12.0152C58.4416 12.0152 59.676 10.5752 59.676 8.29863C59.676 6.10431 58.4828 4.58203 56.6176 4.58203C55.6576 4.58203 54.9992 5.03463 54.5468 5.65175H54.5056V4.77403H52.7092V14.1135ZM56.2336 10.4655C55.1228 10.4655 54.5332 9.62891 54.5332 8.35347C54.5332 7.09175 54.9992 6.09063 56.1652 6.09063C57.3172 6.09063 57.7832 7.02319 57.7832 8.35347C57.7832 9.68375 57.18 10.4655 56.2336 10.4655Z" fill="#AAD9D1"/>
<path d="M63.3964 12.0152C65.152 12.0152 66.3588 11.1649 66.3588 9.75231C66.3588 8.10663 65.056 7.77747 63.8764 7.53063C62.8752 7.32491 61.9428 7.27003 61.9428 6.66663C61.9428 6.15919 62.4228 5.88491 63.1496 5.88491C63.9452 5.88491 64.4252 6.15919 64.5072 6.91347H66.194C66.0572 5.50091 65.0284 4.58203 63.1772 4.58203C61.5724 4.58203 60.3108 5.30891 60.3108 6.83119C60.3108 8.36719 61.5452 8.71003 62.8068 8.95691C63.7668 9.14891 64.658 9.21747 64.658 9.88947C64.658 10.3832 64.192 10.6986 63.3692 10.6986C62.5324 10.6986 61.9564 10.342 61.8332 9.53291H60.1052C60.2148 11.0278 61.3532 12.0152 63.3964 12.0152Z" fill="#AAD9D1"/>
<path d="M73.4401 11.8096V4.77417H71.5749V8.83361C71.5749 9.76617 71.0401 10.4244 70.1625 10.4244C69.3669 10.4244 68.9969 9.97189 68.9969 9.14905V4.77417H67.1453V9.46445C67.1453 11.0005 68.0229 12.0016 69.5865 12.0016C70.5741 12.0016 71.1225 11.6313 71.6025 10.9868H71.6437V11.8096H73.4401Z" fill="#AAD9D1"/>
<path d="M74.6465 11.8095H76.5117V7.72263C76.5117 6.79003 77.0193 6.18663 77.7737 6.18663C78.4593 6.18663 78.8569 6.59803 78.8569 7.39347V11.8095H80.7221V7.72263C80.7221 6.79003 81.2021 6.18663 81.9837 6.18663C82.6697 6.18663 83.0673 6.59803 83.0673 7.39347V11.8095H84.9325V7.07803C84.9325 5.54203 84.0957 4.58203 82.6145 4.58203C81.7233 4.58203 80.9825 5.04831 80.5025 5.81631H80.4753C80.1325 5.07575 79.4193 4.58203 78.5277 4.58203C77.5541 4.58203 76.8685 5.07575 76.4845 5.72031H76.4433V4.77403H74.6465V11.8095Z" fill="#AAD9D1"/>
<path d="M1.02979 11.8096H2.89493V2.00391H1.02979V11.8096Z" fill="#AAD9D1"/>
<path d="M7.45548 12.0152C9.63604 12.0152 11.1309 10.3969 11.1309 8.29863C11.1309 6.20031 9.63604 4.58203 7.45548 4.58203C5.27488 4.58203 3.78003 6.20031 3.78003 8.29863C3.78003 10.3969 5.27488 12.0152 7.45548 12.0152ZM7.45548 10.5889C6.30348 10.5889 5.6726 9.67003 5.6726 8.29863C5.6726 6.92719 6.30348 5.99463 7.45548 5.99463C8.59376 5.99463 9.23832 6.92719 9.23832 8.29863C9.23832 9.67003 8.59376 10.5889 7.45548 10.5889Z" fill="#AAD9D1"/>
<path d="M15.0973 14.2095C16.1396 14.2095 17.0447 13.9626 17.6344 13.414C18.1556 12.934 18.471 12.262 18.471 11.2746V4.77403H16.6745V5.51463H16.647C16.2219 4.92491 15.5773 4.58203 14.6996 4.58203C12.9167 4.58203 11.655 5.92603 11.655 8.02431C11.655 10.15 13.191 11.3843 14.7545 11.3843C15.6459 11.3843 16.1807 11.0278 16.5921 10.5615H16.6333V11.3295C16.6333 12.2895 16.1259 12.7969 15.0699 12.7969C14.2059 12.7969 13.8081 12.454 13.6573 12.0152H11.8059C11.9979 13.3866 13.1773 14.2095 15.0973 14.2095ZM15.0699 9.88947C14.1099 9.88947 13.479 9.19003 13.479 7.99691C13.479 6.81747 14.1099 6.07691 15.0561 6.07691C16.1807 6.07691 16.7293 6.95463 16.7293 7.98319C16.7293 9.02547 16.2493 9.88947 15.0699 9.88947Z" fill="#AAD9D1"/>
<path d="M23.0045 12.0152C25.1851 12.0152 26.68 10.3969 26.68 8.29863C26.68 6.20031 25.1851 4.58203 23.0045 4.58203C20.824 4.58203 19.3291 6.20031 19.3291 8.29863C19.3291 10.3969 20.824 12.0152 23.0045 12.0152ZM23.0045 10.5889C21.8525 10.5889 21.2217 9.67003 21.2217 8.29863C21.2217 6.92719 21.8525 5.99463 23.0045 5.99463C24.1428 5.99463 24.7874 6.92719 24.7874 8.29863C24.7874 9.67003 24.1428 10.5889 23.0045 10.5889Z" fill="#AAD9D1"/>
<path d="M85.6101 3.61904C85.6101 3.30344 85.8661 3.04761 86.1817 3.04761H87.3245C87.6401 3.04761 87.8961 3.30344 87.8961 3.61904C87.8961 3.93463 87.6401 4.19047 87.3245 4.19047H86.1817C85.8661 4.19047 85.6101 3.93463 85.6101 3.61904Z" fill="#AAD9D1"/>
<path fill-rule="evenodd" clip-rule="evenodd" d="M37.9912 0C42.4093 0 45.9913 3.58172 45.9913 8C45.9913 12.4183 42.4093 16 37.9912 16C33.5729 16 29.9912 12.4183 29.9912 8C29.9912 3.58172 33.5729 0 37.9912 0ZM37.7021 0.598636C36.7894 0.727076 35.9203 1.46043 35.2457 2.68696C35.0501 3.04273 34.8735 3.43578 34.7196 3.86018C35.6369 3.62967 36.6446 3.49377 37.7021 3.47275V0.598636ZM34.0435 4.05232C34.2349 3.45183 34.4689 2.89936 34.739 2.40826C35.0734 1.80024 35.4703 1.27518 35.9174 0.871908C33.4859 1.57809 31.5693 3.49472 30.8631 5.92628C31.2664 5.47912 31.7914 5.08224 32.3995 4.74784C32.8906 4.47772 33.443 4.24364 34.0435 4.05232ZM33.8514 4.72844C33.6209 5.64572 33.485 6.65336 33.4639 7.71084H30.5898C30.7183 6.79816 31.4516 5.92912 32.6782 5.25456C33.0339 5.05888 33.427 4.88232 33.8514 4.72844ZM34.0424 7.71084C34.0663 6.5568 34.2324 5.47336 34.5073 4.51608C35.4646 4.2412 36.548 4.07504 37.7021 4.05116V5.30032C37.2715 6.40248 36.3935 7.28048 35.2913 7.71084H34.0424ZM33.4639 8.28916H30.5898C30.7183 9.20184 31.4516 10.0708 32.6782 10.7454C33.0339 10.9411 33.427 11.1177 33.8514 11.2716C33.6209 10.3543 33.485 9.34664 33.4639 8.28916ZM34.5073 11.4839C34.2324 10.5266 34.0663 9.4432 34.0424 8.28916H35.2913C36.3935 8.71952 37.2715 9.59752 37.7021 10.6997V11.9488C36.548 11.925 35.4646 11.7588 34.5073 11.4839ZM34.0435 11.9477C33.443 11.7564 32.8906 11.5223 32.3995 11.2522C31.7914 10.9178 31.2664 10.5209 30.8631 10.0737C31.5693 12.5053 33.4859 14.4219 35.9174 15.1281C35.4703 14.7248 35.0734 14.1998 34.739 13.5917C34.4689 13.1006 34.2349 12.5482 34.0435 11.9477ZM37.7021 15.4014C36.7894 15.2729 35.9203 14.5396 35.2457 13.313C35.0501 12.9573 34.8735 12.5642 34.7196 12.1398C35.6369 12.3703 36.6446 12.5062 37.7021 12.5272V15.4014ZM40.0649 15.1281C40.5121 14.7248 40.9089 14.1998 41.2433 13.5917C41.5133 13.1006 41.7477 12.5482 41.9389 11.9477C42.5393 11.7564 43.0917 11.5223 43.5829 11.2522C44.1909 10.9178 44.7161 10.5209 45.1193 10.0737C44.4129 12.5053 42.4965 14.4219 40.0649 15.1281ZM41.2629 12.1398C41.1089 12.5642 40.9321 12.9573 40.7365 13.313C40.0621 14.5396 39.193 15.2729 38.2803 15.4014V12.5272C39.3378 12.5062 40.3454 12.3703 41.2629 12.1398ZM42.1309 11.2716C42.5553 11.1177 42.9485 10.9411 43.3041 10.7454C44.5309 10.0709 45.2641 9.20184 45.3925 8.28916H42.5185C42.4973 9.34664 42.3613 10.3543 42.1309 11.2716ZM41.9401 8.28916C41.9161 9.4432 41.7501 10.5266 41.4749 11.4839C40.5178 11.7588 39.4344 11.925 38.2803 11.9488V10.7006C38.7107 9.59804 39.589 8.71964 40.6915 8.28916H41.9401ZM42.5185 7.71084H45.3925C45.2641 6.79816 44.5309 5.92912 43.3041 5.25456C42.9485 5.05888 42.5553 4.88232 42.1309 4.72844C42.3613 5.64572 42.4973 6.65336 42.5185 7.71084ZM41.4749 4.51608C41.7501 5.47336 41.9161 6.5568 41.9401 7.71084H40.6915C39.589 7.28036 38.7107 6.40196 38.2803 5.2994V4.05116C39.4344 4.07504 40.5178 4.2412 41.4749 4.51608ZM41.9389 4.05232C42.5393 4.24364 43.0917 4.47772 43.5829 4.74784C44.1909 5.08224 44.7161 5.47912 45.1193 5.92628C44.4129 3.49472 42.4965 1.57809 40.0649 0.871908C40.5121 1.27518 40.9089 1.80024 41.2433 2.40826C41.5133 2.89936 41.7477 3.45183 41.9389 4.05232ZM38.2803 0.598636C39.193 0.727076 40.0621 1.46043 40.7365 2.68696C40.9321 3.04274 41.1089 3.43578 41.2629 3.86018C40.3454 3.62967 39.3378 3.49377 38.2803 3.47275V0.598636Z" fill="#AAD9D1"/>
</g>
<defs>
<clipPath id="clip0_4111_217">
<rect width="87.2" height="16" fill="white" transform="translate(0.700073)"/>
</clipPath>
</defs>
</svg>
